<mxfile host="65bd71144e">
    <diagram name="Page-1" id="c1b2a3d4-e5f6-a7b8-c9d0-e1f2a3b4c5d6">
        <mxGraphModel dx="1053" dy="795" grid="1" gridSize="10" guides="1" tooltips="1" connect="1" arrows="1" fold="1" page="1" pageScale="1" pageWidth="850" pageHeight="1100" math="0" shadow="0">
            <root>
                <mxCell id="0"/>
                <mxCell id="1" parent="0"/>
                <mxCell id="start_node" value="시작" style="shape=ellipse;whiteSpace=wrap;html=1;fontFamily=Verdana;fontSize=12;" parent="1" vertex="1">
                    <mxGeometry x="100" y="50" width="100" height="100" as="geometry"/>
                </mxCell>
                <mxCell id="load_model" value="YOLO 모델 로드" style="whiteSpace=wrap;html=1;fontFamily=Verdana;fontSize=12;" parent="1" vertex="1">
                    <mxGeometry x="100" y="200" width="100" height="100" as="geometry"/>
                </mxCell>
                <mxCell id="cond_shutdown_loop" value="shutdown_event가&lt;br&gt;설정되었는가?" style="shape=rhombus;whiteSpace=wrap;html=1;fontFamily=Verdana;fontSize=12;" parent="1" vertex="1">
                    <mxGeometry x="100" y="350" width="100" height="100" as="geometry"/>
                </mxCell>
                <mxCell id="io_get_frame" value="frame_queue에서&lt;br&gt;프레임 가져오기&lt;br&gt;(timeout=1.0)" style="shape=parallelogram;whiteSpace=wrap;html=1;fontFamily=Verdana;fontSize=12;" parent="1" vertex="1">
                    <mxGeometry x="100" y="500" width="100" height="100" as="geometry"/>
                </mxCell>
                <mxCell id="cond_frame_ok" value="프레임 가져오기&lt;br&gt;성공?" style="shape=rhombus;whiteSpace=wrap;html=1;fontFamily=Verdana;fontSize=12;" parent="1" vertex="1">
                    <mxGeometry x="100" y="650" width="100" height="100" as="geometry"/>
                </mxCell>
                <mxCell id="process_yolo" value="YOLO&lt;br&gt;객체 탐지 수행" style="whiteSpace=wrap;html=1;fontFamily=Verdana;fontSize=12;" parent="1" vertex="1">
                    <mxGeometry x="100" y="800" width="100" height="100" as="geometry"/>
                </mxCell>
                <mxCell id="process_read_meta" value="공유 메타데이터&lt;br&gt;읽기 (Lock)" style="whiteSpace=wrap;html=1;fontFamily=Verdana;fontSize=12;" parent="1" vertex="1">
                    <mxGeometry x="100" y="950" width="100" height="100" as="geometry"/>
                </mxCell>
                <mxCell id="cond_meta_ok" value="메타데이터&lt;br&gt;유효 여부" style="shape=rhombus;whiteSpace=wrap;html=1;fontFamily=Verdana;fontSize=12;" parent="1" vertex="1">
                    <mxGeometry x="100" y="1100" width="100" height="100" as="geometry"/>
                </mxCell>
                <mxCell id="process_gen_json" value="JSON 데이터 생성" style="whiteSpace=wrap;html=1;fontFamily=Verdana;fontSize=12;" parent="1" vertex="1">
                    <mxGeometry x="100" y="1250" width="100" height="100" as="geometry"/>
                </mxCell>
                <mxCell id="cond_queue_full" value="db_manager_queue가 가득 찼는가?" style="shape=rhombus;whiteSpace=wrap;html=1;fontFamily=Verdana;fontSize=12;" parent="1" vertex="1">
                    <mxGeometry x="100" y="1400" width="100" height="100" as="geometry"/>
                </mxCell>
                <mxCell id="io_add_to_queue" value="db_manager_queue에&lt;br&gt;데이터 추가" style="shape=parallelogram;whiteSpace=wrap;html=1;fontFamily=Verdana;fontSize=12;" parent="1" vertex="1">
                    <mxGeometry x="100" y="1550" width="100" height="100" as="geometry"/>
                </mxCell>
                <mxCell id="process_warn_queue" value="경고 출력:&lt;br&gt;큐가 가득 참" style="whiteSpace=wrap;html=1;fontFamily=Verdana;fontSize=12;" parent="1" vertex="1">
                    <mxGeometry x="250" y="1400" width="100" height="100" as="geometry"/>
                </mxCell>
                <mxCell id="process_visualize" value="탐지 결과&lt;br&gt;프레임에 시각화&lt;div&gt;(현재 코드 : 더미)&lt;/div&gt;" style="whiteSpace=wrap;html=1;fontFamily=Verdana;fontSize=12;" parent="1" vertex="1">
                    <mxGeometry x="100" y="1700" width="100" height="100" as="geometry"/>
                </mxCell>
                <mxCell id="io_display" value="결과 화면에 표시" style="shape=parallelogram;whiteSpace=wrap;html=1;fontFamily=Verdana;fontSize=12;" parent="1" vertex="1">
                    <mxGeometry x="100" y="1850" width="100" height="100" as="geometry"/>
                </mxCell>
                <mxCell id="cond_esc_key" value="ESC 키가&lt;br&gt;입력되었는가?" style="shape=rhombus;whiteSpace=wrap;html=1;fontFamily=Verdana;fontSize=12;" parent="1" vertex="1">
                    <mxGeometry x="100" y="2000" width="100" height="100" as="geometry"/>
                </mxCell>
                <mxCell id="process_set_shutdown" value="shutdown_event&lt;br&gt;설정" style="whiteSpace=wrap;html=1;fontFamily=Verdana;fontSize=12;" parent="1" vertex="1">
                    <mxGeometry x="250" y="2000" width="100" height="100" as="geometry"/>
                </mxCell>
                <mxCell id="process_handle_error" value="오류 메시지 출력" style="whiteSpace=wrap;html=1;fontFamily=Verdana;fontSize=12;" parent="1" vertex="1">
                    <mxGeometry x="250" y="650" width="100" height="100" as="geometry"/>
                </mxCell>
                <mxCell id="process_close_windows" value="모든 창 닫기" style="whiteSpace=wrap;html=1;fontFamily=Verdana;fontSize=12;" parent="1" vertex="1">
                    <mxGeometry x="400" y="2150" width="100" height="100" as="geometry"/>
                </mxCell>
                <mxCell id="end_node" value="종료" style="shape=ellipse;whiteSpace=wrap;html=1;fontFamily=Verdana;fontSize=12;" parent="1" vertex="1">
                    <mxGeometry x="400" y="2300" width="100" height="100" as="geometry"/>
                </mxCell>
                <mxCell id="edge-start-load" style="edgeStyle=orthogonalEdgeStyle;rounded=0;orthogonalLoop=1;jettySize=auto;html=1;" parent="1" source="start_node" target="load_model" edge="1">
                    <mxGeometry relative="1" as="geometry"/>
                </mxCell>
                <mxCell id="edge-load-loop" style="edgeStyle=orthogonalEdgeStyle;rounded=0;orthogonalLoop=1;jettySize=auto;html=1;" parent="1" source="load_model" target="cond_shutdown_loop" edge="1">
                    <mxGeometry relative="1" as="geometry"/>
                </mxCell>
                <mxCell id="edge-loop-get_frame" value="No" style="edgeStyle=orthogonalEdgeStyle;rounded=0;orthogonalLoop=1;jettySize=auto;html=1;align=left;verticalAlign=bottom;" parent="1" source="cond_shutdown_loop" target="io_get_frame" edge="1">
                    <mxGeometry relative="1" as="geometry"/>
                </mxCell>
                <mxCell id="edge-get_frame-cond_ok" style="edgeStyle=orthogonalEdgeStyle;rounded=0;orthogonalLoop=1;jettySize=auto;html=1;" parent="1" source="io_get_frame" target="cond_frame_ok" edge="1">
                    <mxGeometry relative="1" as="geometry"/>
                </mxCell>
                <mxCell id="edge-cond_ok-yolo" value="Yes" style="edgeStyle=orthogonalEdgeStyle;rounded=0;orthogonalLoop=1;jettySize=auto;html=1;align=left;verticalAlign=bottom;" parent="1" source="cond_frame_ok" target="process_yolo" edge="1">
                    <mxGeometry relative="1" as="geometry"/>
                </mxCell>
                <mxCell id="edge-yolo-meta" style="edgeStyle=orthogonalEdgeStyle;rounded=0;orthogonalLoop=1;jettySize=auto;html=1;" parent="1" source="process_yolo" target="process_read_meta" edge="1">
                    <mxGeometry relative="1" as="geometry"/>
                </mxCell>
                <mxCell id="edge-meta-cond_meta" style="edgeStyle=orthogonalEdgeStyle;rounded=0;orthogonalLoop=1;jettySize=auto;html=1;" parent="1" source="process_read_meta" target="cond_meta_ok" edge="1">
                    <mxGeometry relative="1" as="geometry"/>
                </mxCell>
                <mxCell id="edge-cond_meta-gen_json" value="Yes" style="edgeStyle=orthogonalEdgeStyle;rounded=0;orthogonalLoop=1;jettySize=auto;html=1;align=left;verticalAlign=bottom;" parent="1" source="cond_meta_ok" target="process_gen_json" edge="1">
                    <mxGeometry relative="1" as="geometry"/>
                </mxCell>
                <mxCell id="edge-gen_json-cond_queue" style="edgeStyle=orthogonalEdgeStyle;rounded=0;orthogonalLoop=1;jettySize=auto;html=1;" parent="1" source="process_gen_json" target="cond_queue_full" edge="1">
                    <mxGeometry relative="1" as="geometry"/>
                </mxCell>
                <mxCell id="edge-cond_queue-add" value="No" style="edgeStyle=orthogonalEdgeStyle;rounded=0;orthogonalLoop=1;jettySize=auto;html=1;align=left;verticalAlign=bottom;" parent="1" source="cond_queue_full" target="io_add_to_queue" edge="1">
                    <mxGeometry relative="1" as="geometry"/>
                </mxCell>
                <mxCell id="edge-cond_queue-warn" value="Yes" style="edgeStyle=orthogonalEdgeStyle;rounded=0;orthogonalLoop=1;jettySize=auto;html=1;align=right;verticalAlign=bottom;" parent="1" source="cond_queue_full" target="process_warn_queue" edge="1">
                    <mxGeometry x="-0.2" y="-20" relative="1" as="geometry">
                        <mxPoint as="offset"/>
                    </mxGeometry>
                </mxCell>
                <mxCell id="edge-add-visualize" style="edgeStyle=orthogonalEdgeStyle;rounded=0;orthogonalLoop=1;jettySize=auto;html=1;" parent="1" source="io_add_to_queue" target="process_visualize" edge="1">
                    <mxGeometry relative="1" as="geometry"/>
                </mxCell>
                <mxCell id="edge-visualize-display" style="edgeStyle=orthogonalEdgeStyle;rounded=0;orthogonalLoop=1;jettySize=auto;html=1;" parent="1" source="process_visualize" target="io_display" edge="1">
                    <mxGeometry relative="1" as="geometry"/>
                </mxCell>
                <mxCell id="edge-display-cond_esc" style="edgeStyle=orthogonalEdgeStyle;rounded=0;orthogonalLoop=1;jettySize=auto;html=1;" parent="1" source="io_display" target="cond_esc_key" edge="1">
                    <mxGeometry relative="1" as="geometry"/>
                </mxCell>
                <mxCell id="edge-cond_esc-set_shutdown" value="Yes" style="edgeStyle=orthogonalEdgeStyle;rounded=0;orthogonalLoop=1;jettySize=auto;html=1;align=right;verticalAlign=bottom;" parent="1" source="cond_esc_key" target="process_set_shutdown" edge="1">
                    <mxGeometry relative="1" as="geometry"/>
                </mxCell>
                <mxCell id="edge-close-end" style="edgeStyle=orthogonalEdgeStyle;rounded=0;orthogonalLoop=1;jettySize=auto;html=1;" parent="1" source="process_close_windows" target="end_node" edge="1">
                    <mxGeometry relative="1" as="geometry"/>
                </mxCell>
                <mxCell id="edge-loop-timeout" value="No (Timeout)" style="edgeStyle=orthogonalEdgeStyle;rounded=0;orthogonalLoop=1;jettySize=auto;html=1;exitX=1;exitY=0.5;entryX=0;entryY=0.5;exitDx=0;exitDy=0;entryDx=0;entryDy=0;" parent="1" source="cond_frame_ok" target="process_handle_error" edge="1">
                    <mxGeometry x="-0.2" y="20" relative="1" as="geometry">
                        <mxPoint x="100" y="700" as="sourcePoint"/>
                        <Array as="points">
                            <mxPoint x="230" y="700"/>
                            <mxPoint x="230" y="700"/>
                        </Array>
                        <mxPoint as="offset"/>
                    </mxGeometry>
                </mxCell>
                <mxCell id="edge-merge-meta_no-op" style="edgeStyle=orthogonalEdgeStyle;rounded=0;orthogonalLoop=1;jettySize=auto;html=1;exitX=1;exitY=0.5;entryX=1;entryY=0.5;" parent="1" source="cond_meta_ok" target="process_visualize" edge="1">
                    <mxGeometry relative="1" as="geometry">
                        <Array as="points">
                            <mxPoint x="550" y="1150"/>
                            <mxPoint x="550" y="1750"/>
                        </Array>
                    </mxGeometry>
                </mxCell>
                <mxCell id="edge-merge-warn-visualize" style="edgeStyle=orthogonalEdgeStyle;rounded=0;orthogonalLoop=1;jettySize=auto;html=1;exitX=1;exitY=0.5;exitDx=0;exitDy=0;entryX=1;entryY=0.5;entryDx=0;entryDy=0;" parent="1" source="process_warn_queue" target="process_close_windows" edge="1">
                    <mxGeometry relative="1" as="geometry">
                        <Array as="points">
                            <mxPoint x="550" y="1450"/>
                            <mxPoint x="550" y="2200"/>
                        </Array>
                        <mxPoint x="550" y="2213" as="targetPoint"/>
                    </mxGeometry>
                </mxCell>
                <mxCell id="edge-loop-esc_no" value="No" style="edgeStyle=orthogonalEdgeStyle;rounded=0;orthogonalLoop=1;jettySize=auto;html=1;exitX=0;exitY=0.5;entryX=0;entryY=0.5;" parent="1" source="cond_esc_key" target="cond_shutdown_loop" edge="1">
                    <mxGeometry relative="1" as="geometry">
                        <mxPoint x="100" y="2050" as="sourcePoint"/>
                        <Array as="points">
                            <mxPoint x="50" y="2050"/>
                            <mxPoint x="50" y="400"/>
                        </Array>
                    </mxGeometry>
                </mxCell>
                <mxCell id="edge-trunk-from-loop_yes" value="Yes" style="edgeStyle=orthogonalEdgeStyle;rounded=0;orthogonalLoop=1;jettySize=auto;html=1;exitX=1;exitY=0.5;exitDx=0;exitDy=0;" parent="1" source="cond_shutdown_loop" edge="1">
                    <mxGeometry x="-0.9636" relative="1" as="geometry">
                        <Array as="points">
                            <mxPoint x="550" y="400"/>
                            <mxPoint x="550" y="2200"/>
                        </Array>
                        <mxPoint x="320" y="400" as="sourcePoint"/>
                        <mxPoint x="500" y="2200" as="targetPoint"/>
                        <mxPoint as="offset"/>
                    </mxGeometry>
                </mxCell>
                <mxCell id="edge-trunk-from-set_shutdown" style="edgeStyle=orthogonalEdgeStyle;rounded=0;orthogonalLoop=1;jettySize=auto;html=1;exitX=0.5;exitY=1;entryX=0;entryY=0.5;entryDx=0;entryDy=0;" parent="1" source="process_set_shutdown" target="process_close_windows" edge="1">
                    <mxGeometry relative="1" as="geometry">
                        <Array as="points">
                            <mxPoint x="300" y="2200"/>
                        </Array>
                    </mxGeometry>
                </mxCell>
                <mxCell id="edge-trunk-from-error" style="edgeStyle=orthogonalEdgeStyle;rounded=0;orthogonalLoop=1;jettySize=auto;html=1;exitX=1;exitY=0.5;" parent="1" source="process_handle_error" edge="1">
                    <mxGeometry relative="1" as="geometry">
                        <Array as="points">
                            <mxPoint x="350" y="700"/>
                            <mxPoint x="550" y="700"/>
                            <mxPoint x="550" y="2200"/>
                            <mxPoint x="500" y="2200"/>
                        </Array>
                        <mxPoint x="500" y="2200" as="targetPoint"/>
                    </mxGeometry>
                </mxCell>
            </root>
        </mxGraphModel>
    </diagram>
</mxfile>